<?xml version="1.0" encoding="UTF-8" standalone="no"?>
<svg
   xmlns:dc="http://purl.org/dc/elements/1.1/"
   xmlns:cc="http://creativecommons.org/ns#"
   xmlns:rdf="http://www.w3.org/1999/02/22-rdf-syntax-ns#"
   xmlns:svg="http://www.w3.org/2000/svg"
   xmlns="http://www.w3.org/2000/svg"
   xmlns:sodipodi="http://sodipodi.sourceforge.net/DTD/sodipodi-0.dtd"
   xmlns:inkscape="http://www.inkscape.org/namespaces/inkscape"
   version="1.1"
   id="svg14865"
   inkscape:version="0.91 r13725"
   sodipodi:docname="logo_inbitcoin.svg"
   x="0px"
   y="0px"
   width="229.099px"
   height="170.381px"
   viewBox="0 0 229.099 170.381"
   enable-background="new 0 0 229.099 170.381"
   xml:space="preserve"><metadata
     id="metadata42"><rdf:RDF><cc:Work
         rdf:about=""><dc:format>image/svg+xml</dc:format><dc:type
           rdf:resource="http://purl.org/dc/dcmitype/StillImage" /><dc:title></dc:title></cc:Work></rdf:RDF></metadata><defs
     id="defs40" /><sodipodi:namedview
     inkscape:window-maximized="1"
     inkscape:window-y="-3"
     inkscape:window-x="-2"
     inkscape:window-height="1002"
     fit-margin-bottom="0"
     inkscape:document-units="px"
     inkscape:pageshadow="2"
     inkscape:window-width="1920"
     fit-margin-right="0"
     inkscape:pageopacity="0.0"
     inkscape:current-layer="svg14865"
     bordercolor="#666666"
     fit-margin-left="0"
     inkscape:cy="123.36827"
     id="base"
     inkscape:zoom="1.979899"
     borderopacity="1.0"
     inkscape:cx="179.73181"
     showgrid="false"
     fit-margin-top="0"
     pagecolor="#ffffff" /><g
     id="g4"><path
       fill="#184F97"
       d="M112.619,76.3h-11.342l1.856-8.761H96.98l-7.176,33.859l3.418,5.315H106.5l5.265-4.936l4.272-20.163   L112.619,76.3z M96.26,99.978l3.591-16.943h9.73l-3.59,16.943H96.26z"
       id="path6" /><g
       id="g8"><polygon
         fill="#184F97"
         points="123.975,67.539 122.54,74.317 128.695,74.317 130.131,67.539   "
         id="polygon10" /><polygon
         fill="#184F97"
         points="116.802,101.397 121.43,108.598 128.274,76.3 122.119,76.3   "
         id="polygon12" /></g><g
       id="g14"><polygon
         fill="#F28613"
         points="61.994,67.539 60.558,74.317 66.714,74.317 68.149,67.539   "
         id="polygon16" /><polygon
         fill="#F28613"
         points="54.82,101.397 59.449,108.598 66.293,76.3 60.137,76.3   "
         id="polygon18" /></g><g
       id="g20"><polygon
         fill="#184F97"
         points="201.882,67.539 200.446,74.317 206.601,74.317 208.037,67.539   "
         id="polygon22" /><polygon
         fill="#184F97"
         points="194.708,101.397 199.338,108.598 206.181,76.3 200.025,76.3   "
         id="polygon24" /></g><polygon
       fill="#184F97"
       points="140.302,75.984 142.159,67.224 136.004,67.224 127.703,106.397 133.857,106.397 138.876,82.72    145.692,82.72 147.119,75.984  "
       id="polygon26" /><polygon
       fill="#184F97"
       points="166.076,83.035 167.502,76.299 155.451,76.299 150.186,81.235 145.914,101.396 149.331,106.713    161.057,106.713 162.484,99.977 152.37,99.977 155.961,83.035  "
       id="polygon28" /><path
       fill="#184F97"
       d="M190.294,76.3h-13.276l-5.266,4.935l-4.272,20.163l3.418,5.315h13.276l5.267-4.936l4.272-20.164   L190.294,76.3z M173.934,99.978l3.592-16.943h9.73l-3.591,16.943H173.934z"
       id="path30" /><polygon
       fill="#184F97"
       points="225.664,76.299 215.684,76.299 210.419,81.235 205.02,106.713 211.175,106.713 216.193,83.035    222.627,83.035 217.608,106.713 223.763,106.713 229.082,81.615  "
       id="polygon32" /><polygon
       fill="#F28613"
       points="85.855,76.299 75.875,76.299 70.61,81.235 65.211,106.713 71.366,106.713 76.384,83.035    82.817,83.035 77.799,106.713 83.954,106.713 89.273,81.615  "
       id="polygon34" /></g><g
     id="g540-8-2"
     transform="matrix(-0.5758882,0.6916548,-0.8699197,-0.6916548,-332.29343,322.97162)"><g
       id="g542-6-9"
       transform="translate(-329.5645,-374.2739)"><path
         id="path544-9-5"
         inkscape:connector-curvature="0"
         fill="#F28613"
         d="M-88.234,268.875l18.246-73.537l-40.062,16.917    l-13.06,52.274l-79.565-13.162l-40.514,17.107l110.936,18.524" /></g></g><g
     id="flowRoot11218-6-7"
     transform="matrix(0.69656475,0,0,-0.69656475,126.75555,292.68525)" /></svg>

